<svg width="346" height="75" viewBox="0 0 346 75" fill="none" xmlns="http://www.w3.org/2000/svg">
<g filter="url(#filter0_d_0_647)">
<rect x="4" width="338" height="67" rx="8" fill="#DBDBDB"/>
<rect x="4" width="338" height="67" rx="8" fill="url(#paint0_linear_0_647)"/>
<path d="M255.336 28.27V29.572H252.746V38H251.15V29.572H248.546V28.27H255.336ZM260.942 30.16C261.53 30.16 262.053 30.286 262.51 30.538C262.977 30.79 263.341 31.1633 263.602 31.658C263.873 32.1527 264.008 32.75 264.008 33.45V38H262.426V33.688C262.426 32.9973 262.254 32.47 261.908 32.106C261.563 31.7327 261.092 31.546 260.494 31.546C259.897 31.546 259.421 31.7327 259.066 32.106C258.721 32.47 258.548 32.9973 258.548 33.688V38H256.952V27.64H258.548V31.182C258.819 30.8553 259.16 30.6033 259.57 30.426C259.99 30.2487 260.448 30.16 260.942 30.16ZM266.856 29.264C266.567 29.264 266.324 29.166 266.128 28.97C265.932 28.774 265.834 28.5313 265.834 28.242C265.834 27.9527 265.932 27.71 266.128 27.514C266.324 27.318 266.567 27.22 266.856 27.22C267.136 27.22 267.374 27.318 267.57 27.514C267.766 27.71 267.864 27.9527 267.864 28.242C267.864 28.5313 267.766 28.774 267.57 28.97C267.374 29.166 267.136 29.264 266.856 29.264ZM267.64 30.286V38H266.044V30.286H267.64ZM272.536 38.126C271.929 38.126 271.383 38.0187 270.898 37.804C270.422 37.58 270.044 37.2813 269.764 36.908C269.484 36.5253 269.334 36.1007 269.316 35.634H270.968C270.996 35.9607 271.15 36.236 271.43 36.46C271.719 36.6747 272.078 36.782 272.508 36.782C272.956 36.782 273.301 36.698 273.544 36.53C273.796 36.3527 273.922 36.1287 273.922 35.858C273.922 35.5687 273.782 35.354 273.502 35.214C273.231 35.074 272.797 34.92 272.2 34.752C271.621 34.5933 271.15 34.4393 270.786 34.29C270.422 34.1407 270.104 33.912 269.834 33.604C269.572 33.296 269.442 32.89 269.442 32.386C269.442 31.9753 269.563 31.602 269.806 31.266C270.048 30.9207 270.394 30.65 270.842 30.454C271.299 30.258 271.822 30.16 272.41 30.16C273.287 30.16 273.992 30.384 274.524 30.832C275.065 31.2707 275.354 31.8727 275.392 32.638H273.796C273.768 32.2927 273.628 32.0173 273.376 31.812C273.124 31.6067 272.783 31.504 272.354 31.504C271.934 31.504 271.612 31.5833 271.388 31.742C271.164 31.9007 271.052 32.1107 271.052 32.372C271.052 32.5773 271.126 32.75 271.276 32.89C271.425 33.03 271.607 33.142 271.822 33.226C272.036 33.3007 272.354 33.3987 272.774 33.52C273.334 33.6693 273.791 33.8233 274.146 33.982C274.51 34.1313 274.822 34.3553 275.084 34.654C275.345 34.9527 275.48 35.3493 275.49 35.844C275.49 36.2827 275.368 36.6747 275.126 37.02C274.883 37.3653 274.538 37.636 274.09 37.832C273.651 38.028 273.133 38.126 272.536 38.126ZM281.663 29.264C281.373 29.264 281.131 29.166 280.935 28.97C280.739 28.774 280.641 28.5313 280.641 28.242C280.641 27.9527 280.739 27.71 280.935 27.514C281.131 27.318 281.373 27.22 281.663 27.22C281.943 27.22 282.181 27.318 282.377 27.514C282.573 27.71 282.671 27.9527 282.671 28.242C282.671 28.5313 282.573 28.774 282.377 28.97C282.181 29.166 281.943 29.264 281.663 29.264ZM282.447 30.286V38H280.851V30.286H282.447ZM287.342 38.126C286.736 38.126 286.19 38.0187 285.704 37.804C285.228 37.58 284.85 37.2813 284.57 36.908C284.29 36.5253 284.141 36.1007 284.122 35.634H285.774C285.802 35.9607 285.956 36.236 286.236 36.46C286.526 36.6747 286.885 36.782 287.314 36.782C287.762 36.782 288.108 36.698 288.35 36.53C288.602 36.3527 288.728 36.1287 288.728 35.858C288.728 35.5687 288.588 35.354 288.308 35.214C288.038 35.074 287.604 34.92 287.006 34.752C286.428 34.5933 285.956 34.4393 285.592 34.29C285.228 34.1407 284.911 33.912 284.64 33.604C284.379 33.296 284.248 32.89 284.248 32.386C284.248 31.9753 284.37 31.602 284.612 31.266C284.855 30.9207 285.2 30.65 285.648 30.454C286.106 30.258 286.628 30.16 287.216 30.16C288.094 30.16 288.798 30.384 289.33 30.832C289.872 31.2707 290.161 31.8727 290.198 32.638H288.602C288.574 32.2927 288.434 32.0173 288.182 31.812C287.93 31.6067 287.59 31.504 287.16 31.504C286.74 31.504 286.418 31.5833 286.194 31.742C285.97 31.9007 285.858 32.1107 285.858 32.372C285.858 32.5773 285.933 32.75 286.082 32.89C286.232 33.03 286.414 33.142 286.628 33.226C286.843 33.3007 287.16 33.3987 287.58 33.52C288.14 33.6693 288.598 33.8233 288.952 33.982C289.316 34.1313 289.629 34.3553 289.89 34.654C290.152 34.9527 290.287 35.3493 290.296 35.844C290.296 36.2827 290.175 36.6747 289.932 37.02C289.69 37.3653 289.344 37.636 288.896 37.832C288.458 38.028 287.94 38.126 287.342 38.126ZM297.253 31.42C297.524 31.0653 297.893 30.7667 298.359 30.524C298.826 30.2813 299.353 30.16 299.941 30.16C300.613 30.16 301.225 30.328 301.775 30.664C302.335 30.9907 302.774 31.4527 303.091 32.05C303.409 32.6473 303.567 33.3333 303.567 34.108C303.567 34.8827 303.409 35.578 303.091 36.194C302.774 36.8007 302.335 37.2767 301.775 37.622C301.225 37.958 300.613 38.126 299.941 38.126C299.353 38.126 298.831 38.0093 298.373 37.776C297.916 37.5333 297.543 37.2347 297.253 36.88V41.668H295.657V30.286H297.253V31.42ZM301.943 34.108C301.943 33.576 301.831 33.1187 301.607 32.736C301.393 32.344 301.103 32.05 300.739 31.854C300.385 31.6487 300.002 31.546 299.591 31.546C299.19 31.546 298.807 31.6487 298.443 31.854C298.089 32.0593 297.799 32.358 297.575 32.75C297.361 33.142 297.253 33.604 297.253 34.136C297.253 34.668 297.361 35.1347 297.575 35.536C297.799 35.928 298.089 36.2267 298.443 36.432C298.807 36.6373 299.19 36.74 299.591 36.74C300.002 36.74 300.385 36.6373 300.739 36.432C301.103 36.2173 301.393 35.9093 301.607 35.508C301.831 35.1067 301.943 34.64 301.943 34.108ZM304.614 34.108C304.614 33.3333 304.772 32.6473 305.09 32.05C305.416 31.4527 305.855 30.9907 306.406 30.664C306.966 30.328 307.582 30.16 308.254 30.16C308.86 30.16 309.388 30.2813 309.836 30.524C310.293 30.7573 310.657 31.0513 310.928 31.406V30.286H312.538V38H310.928V36.852C310.657 37.216 310.288 37.5193 309.822 37.762C309.355 38.0047 308.823 38.126 308.226 38.126C307.563 38.126 306.956 37.958 306.406 37.622C305.855 37.2767 305.416 36.8007 305.09 36.194C304.772 35.578 304.614 34.8827 304.614 34.108ZM310.928 34.136C310.928 33.604 310.816 33.142 310.592 32.75C310.377 32.358 310.092 32.0593 309.738 31.854C309.383 31.6487 309 31.546 308.59 31.546C308.179 31.546 307.796 31.6487 307.442 31.854C307.087 32.05 306.798 32.344 306.574 32.736C306.359 33.1187 306.252 33.576 306.252 34.108C306.252 34.64 306.359 35.1067 306.574 35.508C306.798 35.9093 307.087 36.2173 307.442 36.432C307.806 36.6373 308.188 36.74 308.59 36.74C309 36.74 309.383 36.6373 309.738 36.432C310.092 36.2267 310.377 35.928 310.592 35.536C310.816 35.1347 310.928 34.668 310.928 34.136ZM315.446 29.264C315.157 29.264 314.914 29.166 314.718 28.97C314.522 28.774 314.424 28.5313 314.424 28.242C314.424 27.9527 314.522 27.71 314.718 27.514C314.914 27.318 315.157 27.22 315.446 27.22C315.726 27.22 315.964 27.318 316.16 27.514C316.356 27.71 316.454 27.9527 316.454 28.242C316.454 28.5313 316.356 28.774 316.16 28.97C315.964 29.166 315.726 29.264 315.446 29.264ZM316.23 30.286V38H314.634V30.286H316.23ZM317.793 34.108C317.793 33.3333 317.952 32.6473 318.269 32.05C318.596 31.4527 319.035 30.9907 319.585 30.664C320.145 30.328 320.766 30.16 321.447 30.16C321.951 30.16 322.446 30.272 322.931 30.496C323.426 30.7107 323.818 31 324.107 31.364V27.64H325.717V38H324.107V36.838C323.846 37.2113 323.482 37.5193 323.015 37.762C322.558 38.0047 322.031 38.126 321.433 38.126C320.761 38.126 320.145 37.958 319.585 37.622C319.035 37.2767 318.596 36.8007 318.269 36.194C317.952 35.578 317.793 34.8827 317.793 34.108ZM324.107 34.136C324.107 33.604 323.995 33.142 323.771 32.75C323.557 32.358 323.272 32.0593 322.917 31.854C322.563 31.6487 322.18 31.546 321.769 31.546C321.359 31.546 320.976 31.6487 320.621 31.854C320.267 32.05 319.977 32.344 319.753 32.736C319.539 33.1187 319.431 33.576 319.431 34.108C319.431 34.64 319.539 35.1067 319.753 35.508C319.977 35.9093 320.267 36.2173 320.621 36.432C320.985 36.6373 321.368 36.74 321.769 36.74C322.18 36.74 322.563 36.6373 322.917 36.432C323.272 36.2267 323.557 35.928 323.771 35.536C323.995 35.1347 324.107 34.668 324.107 34.136Z" fill="black"/>
</g>
<defs>
<filter id="filter0_d_0_647" x="0" y="0" width="346" height="75" filterUnits="userSpaceOnUse" color-interpolation-filters="sRGB">
<feFlood flood-opacity="0" result="BackgroundImageFix"/>
<feColorMatrix in="SourceAlpha" type="matrix" values="0 0 0 0 0 0 0 0 0 0 0 0 0 0 0 0 0 0 127 0" result="hardAlpha"/>
<feOffset dy="4"/>
<feGaussianBlur stdDeviation="2"/>
<feComposite in2="hardAlpha" operator="out"/>
<feColorMatrix type="matrix" values="0 0 0 0 0 0 0 0 0 0 0 0 0 0 0 0 0 0 0.25 0"/>
<feBlend mode="normal" in2="BackgroundImageFix" result="effect1_dropShadow_0_647"/>
<feBlend mode="normal" in="SourceGraphic" in2="effect1_dropShadow_0_647" result="shape"/>
</filter>
<linearGradient id="paint0_linear_0_647" x1="-148.645" y1="145.167" x2="650.988" y2="-86.624" gradientUnits="userSpaceOnUse">
<stop stop-color="#E8EE47"/>
<stop offset="1" stop-color="#7FE49F"/>
<stop offset="1" stop-color="#DBDBDB" stop-opacity="0"/>
</linearGradient>
</defs>
</svg>
