<svg width="9" height="16" viewBox="0 0 9 16" fill="none" xmlns="http://www.w3.org/2000/svg">
<path d="M8.11816 8C8.11816 7.79248 8.03516 7.60156 7.87744 7.45215L1.30322 1.01074C1.15381 0.869629 0.971191 0.794922 0.755371 0.794922C0.332031 0.794922 0 1.11865 0 1.55029C0 1.75781 0.0830078 1.94873 0.21582 2.08984L6.25879 8L0.21582 13.9102C0.0830078 14.0513 0 14.2339 0 14.4497C0 14.8813 0.332031 15.2051 0.755371 15.2051C0.971191 15.2051 1.15381 15.1304 1.30322 14.981L7.87744 8.54785C8.03516 8.39014 8.11816 8.20752 8.11816 8Z" fill="#EBEBF5" fill-opacity="0.3"/>
</svg>
